<?xml version="1.0" standalone="no"?>
<!DOCTYPE svg PUBLIC "-//W3C//DTD SVG 20010904//EN"
 "http://www.w3.org/TR/2001/REC-SVG-20010904/DTD/svg10.dtd">
<svg version="1.0" xmlns="http://www.w3.org/2000/svg"
 width="169.000000pt" height="178.000000pt" viewBox="0 0 169.000000 178.000000"
 preserveAspectRatio="xMidYMid meet">

<g transform="translate(0.000000,178.000000) scale(0.100000,-0.100000)"
fill="#000000" stroke="none">
<path d="M528 1507 l-328 -162 0 -418 0 -417 330 -165 330 -165 335 168 335
167 0 410 0 410 -335 168 c-184 92 -336 167 -338 167 -1 -1 -149 -74 -329
-163z m647 -30 l300 -153 3 -397 2 -397 -310 -155 -310 -155 -315 157 -315
158 0 390 0 390 313 157 c171 86 317 157 322 157 6 0 145 -68 310 -152z"/>
<path d="M528 1043 c-3 -300 2 -373 31 -437 50 -113 151 -161 320 -154 81 3
106 8 154 31 64 32 109 80 134 146 14 39 18 96 23 369 l5 322 -67 0 -68 0 0
-280 c0 -156 -5 -300 -10 -328 -13 -57 -60 -119 -106 -138 -81 -34 -189 -7
-237 58 -47 64 -50 86 -55 396 l-4 292 -58 0 -59 0 -3 -277z"/>
</g>
</svg>
